<svg width="16" height="16" viewBox="0 0 16 16" fill="none" xmlns="http://www.w3.org/2000/svg">
<path d="M11.4933 5.23334L7.03999 9.68667L4.45332 7.1C4.32841 6.97584 4.15944 6.90614 3.98332 6.90614C3.8072 6.90614 3.63823 6.97584 3.51332 7.1C3.38915 7.22491 3.31946 7.39388 3.31946 7.57C3.31946 7.74613 3.38915 7.91509 3.51332 8.04L6.57332 11.1C6.69823 11.2242 6.8672 11.2939 7.04332 11.2939C7.21944 11.2939 7.38841 11.2242 7.51332 11.1L12.4333 6.18C12.4958 6.11803 12.5454 6.04429 12.5792 5.96305C12.6131 5.88181 12.6305 5.79468 12.6305 5.70667C12.6305 5.61866 12.6131 5.53152 12.5792 5.45029C12.5454 5.36905 12.4958 5.29531 12.4333 5.23334C12.3084 5.10917 12.1394 5.03947 11.9633 5.03947C11.7872 5.03947 11.6182 5.10917 11.4933 5.23334Z" fill="white"/>
</svg>
