<svg width="12" height="12" viewBox="0 0 12 12" fill="none" xmlns="http://www.w3.org/2000/svg">
<path d="M11 6.83334H6.83333V11C6.83333 11.221 6.74554 11.433 6.58926 11.5893C6.43298 11.7455 6.22101 11.8333 6 11.8333C5.77899 11.8333 5.56703 11.7455 5.41075 11.5893C5.25447 11.433 5.16667 11.221 5.16667 11V6.83334H1C0.778988 6.83334 0.567026 6.74555 0.410746 6.58927C0.254465 6.43299 0.166668 6.22102 0.166668 6.00001C0.166668 5.779 0.254465 5.56704 0.410746 5.41075C0.567026 5.25447 0.778988 5.16668 1 5.16668H5.16667V1.00001C5.16667 0.778997 5.25447 0.567034 5.41075 0.410754C5.56703 0.254474 5.77899 0.166677 6 0.166677C6.22101 0.166677 6.43298 0.254474 6.58926 0.410754C6.74554 0.567034 6.83333 0.778997 6.83333 1.00001V5.16668H11C11.221 5.16668 11.433 5.25447 11.5893 5.41075C11.7455 5.56704 11.8333 5.779 11.8333 6.00001C11.8333 6.22102 11.7455 6.43299 11.5893 6.58927C11.433 6.74555 11.221 6.83334 11 6.83334Z" fill="#2884EF"/>
</svg>
